<svg xmlns="http://www.w3.org/2000/svg" aria-hidden="true" overflow="hidden" style="position:absolute;width:0;height:0">
  <defs>

    <symbol id="icon-arrow-button" viewBox="0 0 32 32">
      <path
        d="M10.587 3.272c-0.361 0.362-0.585 0.861-0.585 1.413s0.223 1.051 0.585 1.413l9.899 9.901-9.899 9.899c-0.333 0.356-0.537 0.836-0.537 1.363 0 1.105 0.895 2 2 2 0.527 0 1.007-0.204 1.365-0.538l-0.001 0.001 11.315-11.312c0.361-0.362 0.585-0.861 0.585-1.413s-0.224-1.052-0.585-1.413l-11.315-11.315c-0.362-0.361-0.861-0.585-1.413-0.585s-1.052 0.224-1.413 0.585l0-0z">
      </path>
    </symbol>
    <symbol id="icon-cross" viewBox="0 0 32 32">
      <path
        d="M17.253 16l7.369-7.369c0.131-0.154 0.21-0.355 0.21-0.574 0-0.491-0.398-0.889-0.889-0.889-0.22 0-0.42 0.080-0.576 0.211l0.001-0.001-7.369 7.369-7.369-7.377c-0.164-0.18-0.399-0.292-0.661-0.292-0.493 0-0.893 0.4-0.893 0.893 0 0.261 0.112 0.496 0.291 0.659l0.001 0.001 7.379 7.369-7.379 7.369c-0.193 0.164-0.315 0.407-0.315 0.679 0 0.491 0.398 0.889 0.889 0.889 0.272 0 0.515-0.122 0.678-0.314l0.001-0.001 7.379-7.369 7.368 7.369c0.154 0.131 0.355 0.21 0.574 0.21 0.491 0 0.889-0.398 0.889-0.889 0-0.22-0.080-0.42-0.211-0.576l0.001 0.001-7.368-7.369z">
      </path>
    </symbol>
    <symbol id="icon-menu" viewBox="0 0 32 32">
      <path
        d="M26.733 14H5.266c-.7 0-1.267.425-1.267.95v.1c0 .525.567.95 1.267.95h21.467c.7 0 1.267-.425 1.267-.95v-.1c0-.525-.567-.95-1.267-.95zM26.733 20H5.266c-.7 0-1.267.425-1.267.95v.1c0 .525.567.95 1.267.95h21.467c.7 0 1.267-.425 1.267-.95v-.1c0-.525-.567-.95-1.267-.95zM26.733 8H5.266c-.7 0-1.267.425-1.267.95v.1c0 .525.567.95 1.267.95h21.467c.7 0 1.267-.425 1.267-.95v-.1c0-.525-.567-.95-1.267-.95z" />
    </symbol>
    <symbol id="icon-arrow" viewBox="0 0 82 32">
      <path
        d="M81.414 17.414a2 2 0 0 0 0-2.828L68.686 1.858a2 2 0 1 0-2.828 2.828L77.172 16 65.858 27.314a2 2 0 1 0 2.828 2.828l12.728-12.728zM0 18h80v-4H0v4z" />
    </symbol>
    <symbol id="facebook" viewBox="0 0 32 32">
      <path
        d="M20.446 15.982h-2.61v9.619h-3.955v-9.619h-1.881v-3.38h1.881v-2.187c0-1.564 0.739-4.014 3.99-4.014l2.929 0.012v3.281h-2.125c-0.349 0-0.839 0.175-0.839 0.921v1.989h2.955l-0.346 3.377z">
      </path>
    </symbol>
    <symbol id="github" viewBox="0 0 32 32">
      <path
        d="M16 6.588c-5.169 0-9.412 4.242-9.412 9.412 0 4.411 3.095 8.419 7.206 9.412v-3.114c-0.407 0.089-0.782 0.092-1.197-0.030-0.556-0.164-1.008-0.535-1.344-1.1-0.214-0.361-0.593-0.752-0.988-0.723l-0.097-1.099c0.855-0.073 1.595 0.521 2.034 1.259 0.195 0.328 0.419 0.52 0.708 0.605 0.278 0.082 0.578 0.043 0.926-0.080 0.088-0.698 0.407-0.959 0.648-1.326v-0.001c-2.451-0.366-3.428-1.666-3.816-2.693-0.514-1.363-0.238-3.066 0.671-4.142 0.018-0.021 0.050-0.076 0.037-0.114-0.417-1.258 0.091-2.299 0.11-2.41 0.481 0.142 0.559-0.143 2.089 0.786l0.264 0.159c0.111 0.066 0.076 0.028 0.186 0.020 0.639-0.173 1.312-0.269 1.975-0.278 0.668 0.009 1.337 0.104 2.002 0.285l0.086 0.009c-0.007-0.001 0.023-0.005 0.075-0.036 1.911-1.157 1.842-0.779 2.355-0.946 0.019 0.111 0.519 1.169 0.107 2.411-0.056 0.171 1.657 1.739 0.708 4.256-0.388 1.027-1.365 2.328-3.816 2.693v0.001c0.314 0.479 0.692 0.734 0.69 1.722v3.887c4.111-0.993 7.206-5 7.206-9.412 0-5.169-4.242-9.412-9.412-9.412v0z">
      </path>
    </symbol>
    <symbol id="telegram" viewBox="0 0 32 32">
      <path
        d="M12.867 18.375l-0.318 4.169c0.454 0 0.651-0.182 0.887-0.401l2.13-1.9 4.415 3.017c0.81 0.421 1.38 0.199 1.599-0.695l2.898-12.672 0.001-0.001c0.257-1.117-0.433-1.554-1.222-1.28l-17.032 6.086c-1.162 0.421-1.145 1.026-0.198 1.3l4.355 1.264 10.115-5.907c0.476-0.294 0.909-0.131 0.553 0.163l-8.182 6.857z">
      </path>
    </symbol>
  </defs>
</svg>